<?xml version="1.0" encoding="utf-8"?>
<!-- Generator: Adobe Illustrator 16.0.0, SVG Export Plug-In . SVG Version: 6.00 Build 0)  -->
<!DOCTYPE svg PUBLIC "-//W3C//DTD SVG 1.1//EN" "http://www.w3.org/Graphics/SVG/1.1/DTD/svg11.dtd">
<svg version="1.1" id="Calque_1" xmlns="http://www.w3.org/2000/svg" xmlns:xlink="http://www.w3.org/1999/xlink" x="0px" y="0px"
	 width="577px" height="408px" viewBox="0 0 577 408" enable-background="new 0 0 577 408" xml:space="preserve">
<path fill="#E92E2F" stroke="#E92E2F" stroke-width="0.0938" stroke-miterlimit="10" d="M316.454,1.505
	c6.357,7.238,8.455,17.587,6.629,26.923c-1.963,10.485-7.779,19.752-14.611,27.734c-5.479,6.426-11.771,12.108-18.331,17.384
	c-7.645,6.156-15.154,12.785-19.957,21.443c-4.059,7.035-5.006,15.694-2.232,23.338c4.532,13.123,15.084,22.863,20.834,35.243
	c-6.359-5.615-12.582-11.432-18.4-17.587c-6.088-6.494-11.837-13.395-15.625-21.512c-2.571-5.682-3.721-12.311-1.759-18.331
	c1.961-6.156,6.358-11.094,10.755-15.694c12.244-12.244,27.33-21.24,39.302-33.687c6.63-6.832,12.109-15.017,14.002-24.419
	C318.618,15.44,317.874,8.337,316.454,1.505L316.454,1.505z"/>
<path fill="#E92E2F" stroke="#E92E2F" stroke-width="0.0938" stroke-miterlimit="10" d="M306.442,78.553
	c13.123-9.673,28.479-15.829,44.035-20.293c-12.311,7.846-25.162,15.017-35.783,25.096c-3.855,3.72-7.508,7.982-9.199,13.191
	c-1.285,3.855-0.744,8.117,0.813,11.77c2.84,6.494,7.643,11.771,11.296,17.723c3.111,5.073,3.653,11.567,1.286,17.046
	c-3.586,8.05-10.621,13.935-17.927,18.602c-0.947,0.541-1.759,1.556-2.909,1.691c4.871-4.397,8.659-10.621,8.523-17.317
	c-0.135-5.006-2.908-9.403-6.156-12.988c-6.696-7.981-12.311-18.128-11.161-28.884C290.41,93.435,298.121,84.776,306.442,78.553
	L306.442,78.553z"/>
<path fill="#0774BB" stroke="#0774BB" stroke-width="0.0938" stroke-miterlimit="10" d="M352.981,156.75
	c2.842-3.45,7.373-4.329,11.5-4.87c7.17-0.947,14.813,0.879,20.225,5.817c4.467,3.991,6.969,10.214,6.021,16.235
	c-1.016,6.968-5.684,12.785-10.959,17.182c-9.537,7.644-21.307,12.108-33.078,15.085c0.676-0.746,1.42-1.422,2.301-1.962
	c8.928-4.803,17.789-10.417,24.352-18.264c3.992-4.872,7.104-11.229,5.816-17.656c-1.352-7.441-8.59-12.853-15.963-13.259
	C359.679,154.72,356.364,156.073,352.981,156.75L352.981,156.75z"/>
<path fill="#0774BB" stroke="#0774BB" stroke-width="0.0938" stroke-miterlimit="10" d="M217.015,162.906
	c12.447-5.344,25.976-8.794,39.572-8.591c-7.914,2.3-16.032,4.262-23.473,7.779c-1.759,0.947-3.788,1.827-4.803,3.653
	c-0.542,1.42,0.947,2.367,2.029,2.84c4.6,1.895,9.673,2.166,14.611,2.639c17.317,1.15,34.702,0.474,51.952-0.609
	c17.046-1.082,33.957-3.382,50.802-6.088c-3.721,1.759-7.51,3.518-10.959,5.75c-1.76,1.218-3.924,1.557-5.886,2.03
	c-20.698,4.6-41.939,6.021-63.045,6.359c-8.185,0.067-16.302-0.067-24.419-0.609c-9.064-0.608-18.197-1.285-27.058-3.652
	c-2.57-0.745-5.276-1.556-7.306-3.382c-1.015-0.812-1.015-2.436-0.135-3.382C211.13,165.341,214.242,164.259,217.015,162.906
	L217.015,162.906z"/>
<path fill="#0774BB" stroke="#0774BB" stroke-width="0.0938" stroke-miterlimit="10" d="M232.979,191.79
	c3.518-2.773,7.711-4.33,11.906-5.817c-1.353,1.623-3.248,3.179-3.382,5.411c-0.068,1.42,1.082,2.502,2.232,3.179
	c2.232,1.15,4.735,1.556,7.238,1.895c12.987,1.353,26.111,2.097,39.234,1.217c11.973-0.608,23.88-2.57,35.718-4.667
	c3.246,3.044,7.102,5.141,11.16,6.967c-14.273,4.194-28.951,6.63-43.698,7.779c-13.935,0.947-28.073,0.88-41.94-1.354
	c-5.479-1.014-11.094-2.164-16.099-4.734c-2.029-1.082-4.329-2.502-4.938-4.87C230.003,194.767,231.491,192.939,232.979,191.79
	L232.979,191.79z"/>
<path fill="#0774BB" stroke="#0774BB" stroke-width="0.0938" stroke-miterlimit="10" d="M240.826,221.283
	c3.112-2.503,6.967-3.788,10.756-4.87c-1.218,1.149-3.382,2.569-2.436,4.531c1.827,2.368,5.209,2.639,7.915,3.248
	c11.432,1.42,22.999,2.367,34.431,1.487c8.658-0.54,17.183-2.097,25.638-3.584c4.871,2.84,9.943,5.275,15.152,7.44
	c-7.982,3.585-16.573,5.885-25.164,7.509c-14.476,2.569-29.425,2.907-43.969,0.608c-6.426-1.15-12.988-2.638-18.805-5.818
	c-2.232-1.284-4.6-2.772-5.547-5.275C238.053,224.598,239.271,222.501,240.826,221.283L240.826,221.283z"/>
<path fill="#0774BB" stroke="#0774BB" stroke-width="0.0938" stroke-miterlimit="10" d="M203.284,240.427
	c6.223-2.097,12.649-3.788,19.211-3.991c2.638-0.067,5.344,0.067,7.644,1.42c-7.846,0.475-15.693,2.436-22.728,6.021
	c-1.556,0.88-3.315,1.895-3.924,3.72c0,2.097,2.368,2.773,3.924,3.45c9.808,3.652,20.293,4.802,30.575,5.886
	c30.643,2.569,61.488,1.894,92.133-0.88c11.566-1.286,23.203-2.571,34.432-5.75c3.584-1.218,7.643-2.435,10.01-5.615
	c1.422-1.893,0.475-4.261-0.945-5.885c2.299,1.286,5.545,2.91,5.072,6.021c-0.879,3.246-4.193,4.937-6.9,6.493
	c-8.658,4.396-18.195,6.63-27.666,8.591c-27.531,5.411-55.74,6.629-83.745,5.818c-21.105-0.745-42.21-2.774-63.045-6.359
	c-3.72-0.88-7.914-1.623-10.62-4.533c-1.759-2.029-0.203-4.869,1.488-6.357C192.46,244.553,197.939,242.389,203.284,240.427
	L203.284,240.427z"/>
<path fill="#0774BB" stroke="#0774BB" stroke-width="0.0938" stroke-miterlimit="10" d="M371.854,263.561
	c6.832-2.367,14.137-4.869,19.211-10.281c-0.879,5.885-5.951,9.943-10.959,12.582c-9.605,5.006-20.359,7.306-31.049,9.199
	c-22.594,3.586-45.525,4.464-68.457,4.059c-15.626-0.473-31.387-1.082-46.742-4.329c-3.653-1.015-7.576-1.691-10.755-3.855
	c13.664,2.3,27.531,3.247,41.398,3.788c22.796,0.676,45.661-0.202,68.321-3.045C345.946,269.853,359.138,267.619,371.854,263.561
	L371.854,263.561z"/>
<path fill="#E92E2F" stroke="#E92E2F" stroke-width="0.0938" stroke-miterlimit="10" d="M193.61,363.879
	c0.067-22.188-0.067-44.375,0.067-66.631c4.6,0.135,9.2,0,13.8,0.135c-0.067,24.827,0,49.719-0.067,74.613
	c-0.136,6.967-0.271,14.272-3.653,20.495c-3.72,6.63-10.35,11.298-17.384,14.003c-2.232-2.435-4.262-5.006-6.494-7.44l0,0
	c5.682-3.314,11.364-8.05,12.717-14.882C193.881,377.475,193.475,370.643,193.61,363.879L193.61,363.879z"/>
<path fill="#E92E2F" stroke="#E92E2F" stroke-width="0.0938" stroke-miterlimit="10" d="M220.262,323.968
	c9.132-3.924,19.279-5.953,29.223-4.871c5.141,0.609,10.485,2.504,13.799,6.63c2.773,3.517,3.788,8.05,3.721,12.447
	c0,15.152,0,30.236,0,45.389c-3.382,0-6.765,0-10.214,0c-0.338-2.232-0.676-4.531-0.947-6.832
	c-3.855,3.045-7.982,5.952-12.785,7.171c-5.479,1.42-11.5,1.285-16.844-0.812c-4.126-1.691-7.373-5.411-8.523-9.741
	c-1.691-6.291-0.812-13.665,3.652-18.738c3.992-4.666,10.012-6.967,15.964-8.049c5.479-1.083,11.094-1.083,16.708-1.083
	c-0.135-4.261,0.676-8.929-1.759-12.717c-1.962-2.909-5.547-4.059-8.861-4.262c-7.238-0.609-14.408,1.218-21.241,3.586
	C221.48,329.38,220.871,326.674,220.262,323.968 M237.038,355.355c-2.976,0.946-5.75,3.111-6.562,6.223
	c-0.947,3.45-0.676,7.509,1.556,10.418c2.164,2.84,6.088,3.517,9.47,3.111c4.735-0.542,8.861-3.248,12.514-6.155
	c0-5.073-0.068-10.08,0-15.153C248.335,353.799,242.518,353.461,237.038,355.355L237.038,355.355z"/>
<path fill="#E92E2F" stroke="#E92E2F" stroke-width="0.0938" stroke-miterlimit="10" d="M339.183,323.968
	c9.199-3.924,19.346-6.021,29.357-4.871c5.006,0.609,10.146,2.437,13.461,6.359c3.113,3.72,4.059,8.659,3.99,13.394
	c-0.066,14.949,0.068,29.831-0.135,44.78c-3.381-0.135-6.764,0.067-10.146-0.135c-0.338-2.3-0.609-4.532-1.014-6.765
	c-4.736,4.06-10.418,7.374-16.844,7.914c-5.885,0.542-12.516-0.202-17.115-4.396c-4.803-4.465-5.613-11.702-4.396-17.858
	c1.15-5.682,5.412-10.349,10.553-12.853c8.049-3.923,17.25-4.126,26.043-4.059c-0.135-4.126,0.609-8.523-1.488-12.243
	c-1.623-2.978-5.074-4.33-8.32-4.668c-7.508-0.812-15.018,1.083-22.053,3.519C340.468,329.38,339.792,326.674,339.183,323.968
	 M355.755,355.423c-2.842,0.947-5.479,3.111-6.359,6.088c-0.947,3.45-0.676,7.509,1.488,10.485c2.232,2.907,6.225,3.517,9.674,3.111
	c4.668-0.677,8.93-3.248,12.447-6.359c-0.137-4.937-0.068-9.943-0.068-14.949C367.188,353.799,361.302,353.461,355.755,355.423
	L355.755,355.423z"/>
<path fill="#E92E2F" stroke="#E92E2F" stroke-width="0.0938" stroke-miterlimit="10" d="M274.716,319.909c4.735,0,9.47,0,14.206,0
	c2.773,8.929,5.479,17.79,8.254,26.72c1.622,5.479,3.651,10.891,4.802,16.506c0.609,2.502,1.149,5.073,1.894,7.508
	c5.818-16.438,10.282-33.416,12.583-50.733c4.6,0,9.199,0,13.799,0c-3.99,21.917-10.281,43.495-19.752,63.653
	c-5.412,0-10.823,0-16.235,0C287.771,362.322,281.21,341.15,274.716,319.909L274.716,319.909z"/>
<g>
	<path fill="#E92E2F" stroke="#E92E2F" stroke-width="0.0938" stroke-miterlimit="10" d="M388.69,318.68h-1.662v-0.6h4.047v0.6
		h-1.67v4.868h-0.715V318.68z"/>
	<path fill="#E92E2F" stroke="#E92E2F" stroke-width="0.0938" stroke-miterlimit="10" d="M396.294,321.146
		c-0.039-0.763-0.088-1.688-0.088-2.36h-0.018c-0.193,0.633-0.414,1.322-0.688,2.076l-0.967,2.653h-0.535l-0.893-2.604
		c-0.26-0.778-0.471-1.477-0.625-2.125h-0.016c-0.016,0.682-0.057,1.59-0.105,2.417l-0.146,2.345h-0.674l0.383-5.468h0.9
		l0.932,2.645c0.229,0.673,0.406,1.273,0.553,1.842h0.016c0.146-0.552,0.342-1.152,0.584-1.842l0.975-2.645h0.9l0.34,5.468h-0.697
		L396.294,321.146z"/>
</g>
</svg>
